HIERARCHY
ROOT Hips
{
 OFFSET 0.000000 0.000000 0.000000
 CHANNELS 6 Xposition Yposition Zposition Yrotation Xrotation Zrotation
 JOINT Chest
 {
  OFFSET 0.000000 9.581000 -0.001100
  CHANNELS 3 Yrotation Xrotation Zrotation
  JOINT Chest2
  {
   OFFSET 0.000000 9.561100 0.002200
   CHANNELS 3 Yrotation Xrotation Zrotation
   JOINT Chest3
   {
    OFFSET 0.000000 9.521100 0.000000
    CHANNELS 3 Yrotation Xrotation Zrotation
    JOINT Chest4
    {
     OFFSET 0.000000 9.511400 0.000000
     CHANNELS 3 Yrotation Xrotation Zrotation
     JOINT Neck
     {
      OFFSET 0.000000 14.375100 0.000000
      CHANNELS 3 Yrotation Xrotation Zrotation
      JOINT Head
      {
       OFFSET 0.000000 8.901200 0.004600
       CHANNELS 3 Yrotation Xrotation Zrotation
       End Site
       {
        OFFSET 0.000000 16.962200 0.002400
       }
      }
     }
     JOINT RightCollar
     {
      OFFSET -2.920100 9.518800 0.000000
      CHANNELS 3 Yrotation Xrotation Zrotation
      JOINT RightShoulder
      {
       OFFSET -13.664500 0.000000 0.000000
       CHANNELS 3 Yrotation Xrotation Zrotation
       JOINT RightElbow
       {
        OFFSET 0.000000 -29.999200 0.000000
        CHANNELS 3 Yrotation Xrotation Zrotation
        JOINT RightWrist
        {
         OFFSET 0.000000 -24.253600 0.000000
         CHANNELS 3 Yrotation Xrotation Zrotation
         End Site
         {
          OFFSET 0.000000 -17.918900 0.000000
         }
        }
       }
      }
     }
     JOINT LeftCollar
     {
      OFFSET 2.920100 9.518800 0.000000
      CHANNELS 3 Yrotation Xrotation Zrotation
      JOINT LeftShoulder
      {
       OFFSET 13.664500 0.000000 0.000000
       CHANNELS 3 Yrotation Xrotation Zrotation
       JOINT LeftElbow
       {
        OFFSET 0.000000 -29.999200 0.000000
        CHANNELS 3 Yrotation Xrotation Zrotation
        JOINT LeftWrist
        {
         OFFSET 0.000000 -24.253600 0.000000
         CHANNELS 3 Yrotation Xrotation Zrotation
         End Site
         {
          OFFSET 0.000000 -17.918900 0.000000
         }
        }
       }
      }
     }
    }
   }
  }
 }
 JOINT RightHip
 {
  OFFSET -7.797300 0.005300 0.000500
  CHANNELS 3 Yrotation Xrotation Zrotation
  JOINT RightKnee
  {
   OFFSET 0.000000 -40.663400 -0.000500
   CHANNELS 3 Yrotation Xrotation Zrotation
   JOINT RightAnkle
   {
    OFFSET 0.000000 -39.523700 -0.000900
    CHANNELS 3 Yrotation Xrotation Zrotation
    JOINT RightToe
    {
     OFFSET 0.000000 -6.418000 14.485300
     CHANNELS 3 Yrotation Xrotation Zrotation
     End Site
     {
      OFFSET 0.000000 -1.465200 6.326400
     }
    }
   }
  }
 }
 JOINT LeftHip
 {
  OFFSET 7.797300 0.005300 0.000500
  CHANNELS 3 Yrotation Xrotation Zrotation
  JOINT LeftKnee
  {
   OFFSET 0.000000 -40.663400 -0.000500
   CHANNELS 3 Yrotation Xrotation Zrotation
   JOINT LeftAnkle
   {
    OFFSET 0.000000 -39.523700 -0.000900
    CHANNELS 3 Yrotation Xrotation Zrotation
    JOINT LeftToe
    {
     OFFSET 0.000000 -6.418000 14.485300
     CHANNELS 3 Yrotation Xrotation Zrotation
     End Site
     {
      OFFSET 0.000000 -1.465200 6.326400
     }
    }
   }
  }
 }
}
MOTION
Frames: 9
Frame Time: 0.008333
0.000000 86.422400 0.000000 0.000000 -5.767877 0.000000 0.000000 11.653817 0.000000 0.000000 -5.885947 0.000000 0.000000 -0.000000 0.000000 0.000000 -0.000000 0.000000 0.000000 12.528835 0.000000 0.000000 0.711642 0.000000 0.000000 -0.000000 0.000000 0.000000 0.000000 -90.000000 0.000000 -2.309062 0.000000 0.000000 2.309062 0.000000 0.000000 -0.000000 0.000000 0.000000 -0.000000 90.000000 0.000000 -2.309062 0.000000 0.000000 2.309062 0.000000 0.000000 8.520406 0.000000 0.000000 1.905762 0.000000 -0.000000 -4.658285 0.000000 0.000000 -0.000000 0.000000 0.000000 8.520406 0.000000 0.000000 1.905762 0.000000 -0.000000 -4.658285 0.000000 0.000000 -0.000000 0.000000
-14.796029 126.887243 13.771798 166.860529 -48.210208 -5.953151 4.099553 26.156798 5.033326 0.502066 4.468264 0.692669 0.829084 7.088231 1.119946 3.125208 21.434494 3.898407 3.702790 14.688136 -1.597115 4.228978 -10.305470 -2.546283 -0.359936 0.321344 3.036444 -8.486259 -2.075255 -9.406127 -123.338502 -67.683642 161.776889 8.742597 7.070420 0.945865 -11.949433 0.346154 1.731438 23.742450 -12.383717 0.875430 129.795191 -58.310514 -146.294766 -0.249568 -23.159705 13.465385 -12.150557 -10.001689 3.917394 -176.281906 82.775920 -165.151644 10.602253 -7.110826 -1.182060 0.000213 -0.000905 0.000095 -3.758453 -25.165109 -1.544394 -0.590467 74.843908 -0.815313 1.140136 -5.188266 -2.806345 -0.001770 0.000309 -0.000784
-14.795693 126.888834 13.770806 166.811899 -48.227885 -5.911910 4.101344 26.170265 5.001291 0.515523 4.470814 0.697534 0.810573 7.086149 1.105496 3.101481 21.440406 3.863938 3.703117 14.625723 -1.588451 4.276572 -10.300937 -2.533332 -0.355972 0.328933 2.999572 -8.512288 -1.921469 -9.378015 -123.218316 -67.733928 161.730390 8.801125 7.102132 0.980214 -11.904648 0.374982 1.778912 23.903465 -12.336865 0.768715 129.581784 -58.255569 -146.028925 -0.001286 -23.114237 14.014575 -12.140017 -9.992882 3.910416 -176.248488 82.773899 -165.132483 10.602267 -7.098432 -1.184109 0.000497 -0.001096 0.000220 -3.742204 -25.146469 -1.545132 -0.599315 74.840407 -0.834167 1.149562 -5.187121 -2.807319 -0.000980 -0.001147 -0.000434
-14.795103 126.889130 13.771003 166.795686 -48.231893 -5.897704 4.079531 26.170958 4.971712 0.487560 4.467792 0.677400 0.838855 7.090115 1.114731 3.088469 21.442663 3.843371 3.702437 14.584458 -1.587947 4.296101 -10.325684 -2.529834 -0.367520 0.341748 2.951718 -8.543720 -1.761797 -9.350755 -123.139288 -67.781394 161.720676 8.857280 7.129280 1.014845 -11.867191 0.398876 1.811080 24.067927 -12.293266 0.682438 129.343636 -58.194521 -145.744841 0.264167 -23.112980 14.600070 -12.151534 -9.993777 3.909067 -176.204552 82.772565 -165.100993 10.606523 -7.084245 -1.190016 0.001218 -0.001190 0.000540 -3.749685 -25.142972 -1.541305 -0.613379 74.839266 -0.857129 1.158606 -5.186211 -2.810033 -0.000378 -0.001042 -0.000167
-14.794332 126.889355 13.771127 166.788853 -48.233388 -5.891685 4.032559 26.171598 4.927295 0.522082 4.470649 0.691320 0.821869 7.087202 1.104868 3.086058 21.445090 3.831668 3.694932 14.552749 -1.592308 4.292262 -10.373308 -2.534650 -0.391701 0.355208 2.899083 -8.577581 -1.595693 -9.324255 -123.099631 -67.823613 161.744209 8.905574 7.149851 1.044395 -11.836015 0.410147 1.826334 24.230634 -12.253003 0.622687 129.086597 -58.134736 -145.439633 0.547702 -23.145052 15.198236 -12.157480 -9.994771 3.908048 -176.153245 82.772317 -165.048936 10.607111 -7.074471 -1.192343 0.001912 -0.001226 0.000847 -3.784460 -25.142930 -1.535445 -0.583610 74.841358 -0.845033 1.168233 -5.187035 -2.821650 -0.000227 -0.000160 -0.000100
-14.793738 126.889542 13.770959 166.783680 -48.233109 -5.886141 4.009944 26.172616 4.907016 0.532938 4.470127 0.693100 0.805263 7.083700 1.096693 3.106582 21.448854 3.834178 3.659823 14.520472 -1.604907 4.289330 -10.400852 -2.540660 -0.436948 0.365635 2.840049 -8.611783 -1.421880 -9.299120 -123.083796 -67.854709 161.785332 8.943165 7.168426 1.066764 -11.843169 0.430955 1.854926 24.424244 -12.223838 0.549782 128.804367 -58.079566 -145.107372 0.858969 -23.204794 15.770995 -12.163411 -9.997945 3.907242 -176.086229 82.770780 -164.981855 10.608002 -7.066398 -1.186331 0.002485 -0.001334 0.001101 -3.800153 -25.146074 -1.537207 -0.562864 74.846683 -0.827403 1.174241 -5.186782 -2.829284 -0.000055 0.000108 -0.000024
-14.792686 126.889775 13.770669 166.765808 -48.232063 -5.874598 4.000004 26.173260 4.893873 0.505734 4.465723 0.680617 0.829064 7.083334 1.100803 3.090815 21.445910 3.818319 3.677971 14.513536 -1.604747 4.255337 -10.437423 -2.550421 -0.450108 0.384094 2.784836 -8.647595 -1.244245 -9.275953 -123.066093 -67.873816 161.821081 8.970116 7.185972 1.082031 -11.808512 0.463146 1.885900 24.617707 -12.203392 0.489293 128.481242 -58.024173 -144.743016 1.204887 -23.298257 16.281901 -12.178492 -10.002866 3.908572 -176.067476 82.768057 -164.981042 10.610408 -7.058610 -1.165684 0.001085 -0.002311 0.000481 -3.808878 -25.150941 -1.538527 -0.540954 74.855021 -0.803981 1.184127 -5.188092 -2.839033 0.000797 -0.000277 0.000353
-14.792673 126.888620 13.771043 166.734281 -48.219624 -5.848812 4.004186 26.161156 4.882013 0.501510 4.463699 0.677514 0.827360 7.080307 1.097859 3.052952 21.439948 3.792301 3.709720 14.511788 -1.602111 4.231740 -10.457697 -2.557009 -0.445315 0.407886 2.734286 -8.687302 -1.068777 -9.257951 -123.023011 -67.883605 161.830430 8.990078 7.195720 1.092293 -11.748715 0.495436 1.915079 24.809314 -12.185569 0.444862 128.108985 -57.962869 -144.351355 1.581399 -23.429455 16.705369 -12.169206 -10.023111 3.905804 -176.057489 82.762102 -164.972876 10.618139 -7.056184 -1.163438 -0.000952 -0.001596 -0.000422 -3.798091 -25.167527 -1.544548 -0.524085 74.863015 -0.781780 1.189615 -5.192124 -2.847763 0.002088 -0.000473 0.000925
-14.791823 126.888998 13.770072 166.725913 -48.216190 -5.844506 4.006265 26.157494 4.881721 0.492794 4.462889 0.674003 0.826575 7.077325 1.096052 3.061377 21.441762 3.792860 3.669321 14.488239 -1.616812 4.194178 -10.463018 -2.561325 -0.484976 0.421779 2.679359 -8.732936 -0.898616 -9.248221 -122.945973 -67.881580 161.807832 9.005250 7.196236 1.099182 -11.728170 0.512030 1.936175 25.002557 -12.171093 0.408940 127.671901 -57.887413 -143.930485 1.972225 -23.598798 17.025979 -12.173366 -10.026916 3.892431 -175.977100 82.754927 -164.881726 10.649670 -7.049629 -1.167336 0.000917 -0.002252 0.000406 -3.802092 -25.174023 -1.547022 -0.513029 74.874034 -0.765155 1.196203 -5.198670 -2.855236 0.003221 -0.000742 0.001427
